<?xml version="1.0" standalone="no"?>
<!DOCTYPE svg PUBLIC "-//W3C//DTD SVG 20010904//EN"
 "http://www.w3.org/TR/2001/REC-SVG-20010904/DTD/svg10.dtd">
<svg id="a" version="1.0" xmlns="http://www.w3.org/2000/svg"
  viewBox="0 0 20 20"
 preserveAspectRatio="xMidYMid meet">

<g transform="translate(0.000000,1375.000000) scale(0.100000,-0.100000)"
fill="#000000" stroke="none">
<path d="M6227 13274 c-4 -4 -59 -8 -124 -9 -65 -1 -170 -7 -233 -13 -63 -6
-200 -16 -304 -22 -103 -5 -232 -17 -285 -26 -94 -16 -183 -24 -446 -43 -71
-6 -152 -17 -180 -26 -27 -9 -64 -20 -80 -25 -53 -17 -196 -40 -305 -51 -58
-5 -141 -20 -185 -33 -44 -14 -107 -28 -140 -32 -33 -3 -87 -15 -120 -25 -33
-9 -100 -25 -150 -34 -49 -9 -121 -25 -160 -36 -38 -10 -137 -29 -220 -43 -82
-14 -186 -36 -230 -50 -119 -36 -214 -63 -430 -121 -238 -64 -336 -95 -420
-133 -96 -43 -153 -61 -280 -87 -107 -23 -195 -51 -280 -90 -38 -18 -93 -40
-121 -49 -28 -9 -71 -29 -95 -44 -50 -32 -90 -48 -138 -56 -54 -10 -66 -24
-41 -51 l21 -23 -27 -21 -28 -22 32 -28 c34 -32 39 -46 46 -141 5 -66 20 -191
32 -268 3 -23 10 -45 15 -48 15 -9 10 -40 -12 -68 -11 -14 -18 -30 -14 -36 10
-17 -56 -49 -114 -55 -68 -7 -152 -32 -206 -61 -22 -12 -58 -27 -80 -34 -22
-7 -49 -18 -60 -24 -11 -6 -49 -18 -85 -28 -113 -30 -589 -192 -601 -205 -10
-10 -9 -17 7 -35 21 -24 69 -186 80 -273 4 -27 10 -54 14 -60 18 -24 99 -276
109 -340 7 -38 20 -92 31 -120 38 -102 60 -183 60 -222 0 -37 10 -81 30 -128
5 -11 11 -45 15 -75 3 -30 20 -83 36 -118 16 -35 29 -80 29 -100 0 -19 9 -56
21 -81 11 -25 26 -59 34 -76 18 -39 32 -90 40 -143 4 -23 20 -79 37 -125 17
-45 36 -120 43 -167 23 -151 36 -224 47 -259 6 -18 14 -62 18 -97 6 -51 15
-72 43 -106 19 -24 37 -56 40 -73 7 -40 21 -85 52 -175 15 -41 31 -108 35
-148 5 -42 20 -97 36 -130 14 -30 28 -69 31 -86 3 -17 9 -35 14 -40 5 -6 9
-25 9 -44 0 -19 11 -60 24 -91 13 -31 34 -94 46 -141 11 -47 25 -99 31 -116 5
-17 9 -37 9 -46 0 -14 38 -109 61 -150 5 -10 9 -63 9 -118 0 -93 2 -102 29
-142 74 -112 86 -136 93 -183 11 -83 24 -131 44 -161 29 -43 51 -121 53 -188
2 -57 27 -126 51 -141 6 -3 9 -18 8 -33 -1 -15 12 -49 29 -77 17 -27 36 -72
42 -99 7 -27 27 -81 46 -121 19 -40 35 -77 35 -82 0 -4 16 -39 35 -77 19 -39
35 -75 35 -81 0 -7 11 -33 25 -59 14 -26 25 -55 25 -65 0 -10 14 -45 31 -77
70 -134 90 -178 104 -227 23 -84 44 -137 70 -175 14 -20 25 -50 25 -66 0 -16
8 -48 19 -70 50 -109 75 -157 117 -231 52 -93 94 -180 94 -198 0 -7 9 -25 20
-42 11 -16 20 -36 20 -43 0 -8 9 -25 20 -39 11 -14 20 -35 20 -47 0 -11 9 -36
20 -54 11 -18 20 -38 20 -45 0 -8 14 -40 30 -72 16 -32 30 -63 30 -68 0 -4 23
-54 50 -109 27 -55 50 -110 50 -123 0 -12 8 -33 18 -46 31 -42 72 -126 72
-148 0 -12 14 -35 30 -53 17 -17 30 -39 30 -49 0 -17 -10 -19 -108 -19 -60 0
-171 -3 -247 -7 -115 -5 -141 -9 -157 -25 -10 -10 -26 -18 -36 -18 -11 0 -53
-9 -95 -20 -60 -15 -125 -20 -291 -25 -207 -5 -214 -5 -240 16 -26 21 -70 28
-84 15 -3 -4 -1 -15 5 -25 7 -10 10 -27 7 -38 -3 -10 6 -33 20 -53 113 -159
160 -242 151 -269 -4 -13 5 -26 30 -45 19 -15 35 -33 35 -40 0 -8 7 -19 15
-26 8 -7 15 -20 15 -30 0 -22 136 -189 326 -399 23 -25 58 -74 78 -108 20 -35
53 -82 74 -106 20 -24 48 -63 62 -86 31 -54 139 -192 162 -209 10 -7 28 -32
40 -55 11 -23 40 -64 63 -92 23 -27 72 -99 110 -160 101 -164 113 -181 174
-246 l56 -61 145 22 c80 12 183 30 230 40 132 29 189 41 270 55 41 7 113 22
160 34 47 11 182 43 300 71 118 28 256 61 305 74 50 13 119 29 155 36 36 6
106 25 156 41 50 16 99 29 110 29 10 0 59 11 109 24 49 14 144 36 210 51 66
14 143 37 172 51 54 26 153 48 268 59 39 3 106 17 150 30 89 27 295 76 395 94
36 7 130 28 210 46 80 19 190 42 245 51 55 9 109 22 120 28 38 24 129 48 214
57 108 12 119 13 127 22 4 4 15 7 24 7 17 0 54 11 320 95 58 19 134 39 170 45
36 6 88 18 115 25 28 8 61 17 75 19 32 7 77 19 165 45 38 12 78 21 88 21 11 0
33 6 50 14 28 13 81 25 127 31 41 5 132 30 187 51 33 13 78 23 100 23 45 -1
126 16 162 36 36 19 92 36 101 30 23 -14 234 61 280 100 8 7 53 22 100 34 64
16 92 29 117 52 28 29 40 33 112 39 46 4 90 14 105 23 13 9 44 20 68 23 24 4
57 17 73 30 32 23 152 84 168 84 5 0 21 9 36 19 28 20 164 71 188 71 8 0 39
11 69 25 30 14 63 25 72 25 10 0 22 4 27 8 6 5 38 17 73 27 35 10 69 26 75 35
7 9 62 31 122 49 61 19 128 42 149 53 22 11 62 28 90 38 126 44 223 83 287
116 38 20 78 34 88 31 10 -2 37 8 61 24 24 16 54 29 67 29 28 0 74 22 92 44 8
9 36 23 63 31 28 8 56 19 62 24 6 4 28 14 49 21 21 6 77 32 124 56 48 24 108
47 135 50 34 5 53 13 61 26 13 22 136 88 164 88 19 1 110 31 130 43 7 4 10 14
7 22 -8 19 27 35 99 45 36 5 66 16 73 25 6 8 40 29 75 47 35 17 76 42 91 56
26 24 75 47 126 59 12 3 22 9 22 14 0 5 4 9 9 9 5 0 23 13 40 29 17 16 50 38
73 50 112 57 148 81 148 99 0 5 33 19 73 31 39 12 83 30 97 41 14 11 30 20 36
20 6 0 21 11 34 24 12 14 35 28 51 31 16 4 31 11 34 16 3 4 23 16 43 26 20 9
52 29 71 44 19 16 38 26 42 23 4 -2 10 0 14 6 3 5 19 7 36 3 21 -4 38 0 57 14
15 10 61 36 102 57 41 21 77 41 80 45 7 10 114 61 128 61 6 0 19 11 28 26 9
14 22 23 29 20 6 -2 24 9 39 25 15 16 32 29 38 29 11 0 45 28 81 68 11 12 26
22 33 22 7 0 14 4 16 8 3 8 126 98 210 154 23 15 51 36 62 46 12 11 53 41 91
68 103 70 169 130 233 209 74 91 106 122 172 171 30 23 77 68 105 100 27 32
52 61 55 64 3 3 33 48 65 100 33 52 74 115 92 140 172 236 307 466 438 745 16
33 33 63 38 66 5 4 7 12 3 17 -4 6 7 24 23 41 16 16 25 31 19 33 -5 2 9 43 31
91 45 95 49 118 26 137 -26 22 -13 53 29 75 22 11 41 27 44 35 2 8 6 22 10 30
3 8 7 26 8 39 2 13 6 31 10 40 4 9 8 25 9 35 1 11 7 22 12 23 6 2 9 13 6 23
-3 11 4 39 15 62 26 55 41 128 47 231 3 45 9 111 12 147 19 170 5 509 -33 800
-3 25 -8 70 -10 100 -3 30 -10 73 -16 95 -6 22 -12 49 -13 60 -1 11 -7 44 -14
73 -6 30 -9 58 -5 63 3 5 0 9 -6 9 -7 0 -9 7 -6 16 3 8 2 13 -3 10 -4 -3 -8 7
-9 23 -1 36 -36 140 -72 210 -15 31 -33 77 -40 101 -15 57 -124 292 -160 345
-15 22 -51 85 -80 140 -82 153 -157 262 -246 356 -45 47 -87 96 -94 110 -7 13
-39 53 -71 89 -31 36 -90 103 -131 150 -83 95 -218 212 -371 322 -29 21 -79
58 -112 83 -92 70 -185 128 -339 212 -78 41 -159 88 -181 103 -66 45 -426 216
-495 235 -49 13 -196 68 -246 91 -28 13 -118 46 -200 74 -82 28 -178 64 -214
80 -101 46 -191 78 -240 85 -25 4 -65 17 -90 30 -25 12 -74 28 -110 35 -36 7
-79 20 -96 30 -28 16 -170 77 -219 95 -11 4 -51 11 -88 15 -41 5 -76 15 -87
25 -13 12 -46 20 -94 25 -46 4 -86 15 -103 26 -29 19 -70 26 -228 43 -49 5
-102 14 -117 20 -15 5 -62 13 -105 16 -75 6 -237 52 -348 97 -27 12 -70 22
-95 23 -25 1 -79 10 -120 19 -41 10 -120 22 -175 26 -55 5 -127 16 -160 25
-33 10 -121 21 -195 25 -92 5 -153 14 -190 27 -78 28 -237 50 -252 35 -20 -20
-431 -16 -509 4 -41 11 -81 14 -115 10 -35 -4 -63 -1 -88 9 -19 8 -49 15 -65
15 -17 0 -40 5 -53 10 -27 12 -1242 -4 -1408 -19 -169 -15 -278 -29 -292 -37
-15 -10 -99 -21 -253 -33 -153 -13 -322 -29 -373 -36 -39 -6 -43 -5 -39 12 3
10 11 43 18 73 6 30 27 83 45 118 40 74 45 131 14 162 -19 19 -69 27 -83 14z
m1646 -321 c-18 -2 -48 -2 -65 0 -18 2 -4 4 32 4 36 0 50 -2 33 -4z m-1999
-705 c-3 -18 -18 -67 -34 -108 -16 -41 -40 -106 -53 -145 -14 -38 -32 -87 -41
-107 -9 -21 -16 -51 -16 -67 0 -41 -71 -235 -109 -299 -17 -29 -31 -58 -31
-65 0 -7 -14 -30 -30 -51 -21 -27 -30 -51 -30 -75 0 -32 -25 -119 -100 -351
-12 -36 -27 -87 -34 -114 -8 -34 -19 -53 -34 -59 -22 -10 -31 -37 -12 -37 16
0 11 -28 -14 -78 -13 -26 -29 -73 -35 -104 -5 -31 -17 -74 -26 -95 -15 -34
-51 -186 -76 -318 -9 -49 -25 -92 -54 -149 -11 -20 -12 -32 -5 -41 8 -9 6 -34
-6 -86 -9 -41 -18 -87 -21 -104 -13 -93 -37 -202 -51 -234 -8 -20 -19 -81 -23
-136 -4 -58 -19 -135 -34 -185 -15 -51 -27 -117 -30 -165 -2 -44 -8 -91 -13
-105 -5 -14 -13 -70 -17 -125 -4 -55 -14 -122 -21 -150 -8 -27 -17 -61 -20
-74 -3 -14 -7 -28 -10 -32 -2 -4 0 -10 6 -14 13 -8 13 -66 1 -99 -6 -13 -13
-71 -17 -127 -6 -80 -11 -105 -25 -117 -14 -12 -16 -19 -7 -29 10 -12 12 -126
4 -198 -2 -17 -7 -75 -10 -130 -14 -218 -18 -261 -26 -295 -5 -19 -10 -91 -10
-160 -1 -69 -8 -170 -15 -225 -27 -198 -30 -243 -31 -485 -1 -135 -6 -321 -11
-415 -6 -93 -7 -180 -4 -193 4 -13 2 -67 -3 -120 -11 -117 -10 -197 4 -277 5
-33 10 -64 10 -70 0 -5 -3 -68 -6 -138 -5 -101 -3 -136 9 -170 12 -33 17 -113
22 -366 5 -232 11 -337 21 -370 17 -56 18 -307 2 -426 -6 -44 -12 -159 -13
-255 l-3 -175 -29 -3 c-15 -2 -50 -9 -78 -17 -42 -11 -111 -21 -219 -30 -12
-1 -29 3 -39 7 -17 9 -80 0 -203 -28 -33 -8 -141 -19 -239 -24 -99 -6 -205
-17 -236 -25 -77 -20 -115 -19 -155 6 -34 20 -52 58 -39 79 3 5 -7 34 -24 64
-17 29 -31 62 -31 72 0 26 -34 117 -54 145 -9 13 -16 33 -16 44 0 11 -11 37
-25 57 -14 20 -25 43 -25 51 0 8 -18 54 -40 102 -22 48 -40 95 -40 104 0 9 -6
25 -14 36 -25 36 -62 159 -65 215 -1 30 -11 71 -21 90 -24 49 -60 142 -60 160
0 8 -12 33 -25 55 -14 22 -25 46 -25 54 0 8 -13 48 -29 90 -16 42 -37 103 -46
136 -10 33 -21 64 -26 69 -5 6 -9 23 -9 39 0 16 -9 40 -19 53 -11 14 -23 50
-26 82 -4 31 -18 80 -32 107 -14 28 -31 78 -38 113 -9 43 -23 73 -44 97 -16
19 -35 54 -42 77 -6 24 -17 54 -24 68 -7 14 -16 49 -20 77 -4 29 -15 64 -26
77 -14 18 -19 40 -19 88 0 46 -7 83 -26 129 -59 147 -74 210 -68 281 6 65 6
67 -15 61 -14 -3 -21 -1 -21 8 0 45 -32 214 -45 239 -8 16 -15 49 -15 73 0 24
-7 52 -15 63 -13 18 -23 58 -60 239 -8 39 -16 130 -20 203 -3 74 -10 142 -15
152 -6 10 -10 43 -10 72 0 29 -7 82 -15 118 -39 165 -58 284 -64 395 -4 66
-12 130 -19 142 -7 12 -12 37 -12 57 0 19 -7 63 -15 98 -13 59 -29 233 -41
448 -4 86 -31 260 -55 365 -5 22 -13 137 -19 255 -5 118 -15 245 -21 281 -12
76 -13 672 -2 984 4 116 7 302 5 414 -2 185 -1 205 15 217 10 7 14 14 8 14
-19 1 97 50 118 50 12 0 49 13 82 28 33 16 78 35 100 42 22 7 51 19 65 26 53
29 208 82 275 94 39 7 102 28 140 45 79 37 180 71 240 80 40 7 109 26 175 50
48 18 174 55 184 55 5 0 37 11 70 24 66 27 223 61 326 72 36 3 78 12 93 20 15
7 49 16 75 20 26 3 54 10 63 15 24 12 127 30 282 49 43 5 82 12 88 15 5 4 42
10 82 15 40 5 113 15 162 24 96 16 236 32 400 46 120 10 250 26 325 40 97 18
205 28 252 24 25 -2 63 0 84 5 22 5 42 9 46 10 4 1 5 -14 2 -31z m-4244 -168
c0 -5 -4 -10 -10 -10 -5 0 -10 5 -10 10 0 6 5 10 10 10 6 0 10 -4 10 -10z
m4820 -430 c-8 -5 -24 -10 -35 -10 -17 0 -17 2 -5 10 8 5 24 10 35 10 17 0 17
-2 5 -10z m1405 -22 c39 -5 275 -14 525 -18 250 -5 487 -13 525 -18 103 -15
187 -32 199 -40 6 -4 83 -10 171 -14 207 -9 279 -19 395 -57 52 -17 104 -31
116 -31 11 0 88 -18 170 -40 140 -38 225 -70 369 -141 33 -16 80 -33 105 -38
90 -18 286 -70 325 -87 22 -9 49 -17 60 -19 11 -1 54 -17 95 -35 41 -17 91
-38 110 -47 35 -14 117 -61 240 -136 74 -45 226 -166 285 -226 21 -23 44 -41
51 -41 7 0 22 -11 35 -25 13 -13 34 -25 47 -25 15 0 22 -6 22 -20 0 -12 6 -20
13 -19 6 1 20 -1 30 -6 15 -6 16 -10 5 -17 -9 -7 -8 -8 5 -4 10 3 28 1 40 -5
31 -17 127 -111 127 -126 0 -7 21 -29 46 -50 67 -55 264 -251 264 -263 0 -5 4
-10 8 -10 5 0 14 -10 20 -22 7 -13 24 -41 37 -63 14 -22 51 -92 81 -155 31
-63 61 -122 68 -130 14 -17 56 -95 80 -150 8 -19 39 -90 70 -157 50 -112 75
-193 79 -255 0 -13 5 -26 9 -29 5 -3 11 -44 14 -90 3 -46 14 -106 24 -134 9
-27 21 -81 24 -120 10 -101 19 -253 19 -305 0 -69 -21 -307 -32 -364 -5 -28
-13 -82 -16 -121 -7 -81 -29 -173 -55 -230 -10 -22 -28 -87 -40 -145 -12 -58
-31 -123 -42 -144 -20 -39 -118 -187 -145 -218 -8 -9 -34 -48 -56 -87 -40 -66
-113 -147 -277 -306 -40 -38 -102 -109 -138 -158 -82 -110 -234 -247 -366
-330 -55 -34 -124 -88 -154 -119 -30 -32 -75 -69 -101 -84 -25 -15 -123 -78
-217 -140 -113 -76 -212 -133 -292 -168 -72 -32 -149 -76 -191 -107 -125 -96
-239 -169 -311 -200 -14 -6 -68 -31 -120 -55 -122 -56 -257 -110 -340 -136
-36 -11 -74 -28 -85 -38 -26 -22 -118 -60 -145 -60 -11 0 -37 -8 -58 -19 -20
-10 -91 -35 -157 -56 -209 -65 -327 -106 -374 -130 -149 -77 -217 -106 -264
-116 -28 -7 -61 -18 -72 -25 -11 -8 -31 -14 -46 -14 -30 0 -127 -32 -161 -53
-12 -8 -34 -18 -48 -22 -14 -4 -54 -19 -90 -35 -65 -28 -242 -80 -271 -80 -9
0 -42 -13 -75 -29 -65 -31 -139 -47 -149 -31 -9 14 -50 12 -104 -5 -25 -8 -89
-28 -141 -44 -52 -17 -123 -34 -157 -40 -34 -5 -76 -17 -94 -26 -53 -28 -240
-86 -289 -90 -25 -2 -67 -9 -93 -15 -40 -11 -50 -10 -65 2 -28 25 -54 30 -71
14 -14 -13 -49 -28 -161 -72 -20 -7 -75 -13 -132 -14 -60 0 -130 -8 -183 -20
-47 -11 -107 -20 -133 -20 -25 0 -80 -7 -122 -14 -41 -8 -120 -23 -175 -32
-55 -9 -125 -23 -155 -32 -107 -30 -258 -43 -327 -27 -28 6 -36 3 -52 -16 -18
-23 -26 -24 -152 -27 -94 -3 -139 -8 -153 -18 -11 -8 -24 -14 -29 -14 -6 0 -7
75 -3 178 8 218 8 240 -4 263 -6 10 -10 62 -10 116 0 64 -5 107 -14 125 -8 14
-19 84 -26 154 -10 102 -10 147 0 216 14 98 9 289 -10 376 -13 59 -8 194 10
282 7 36 9 111 4 215 -5 131 -3 170 10 215 12 40 16 92 14 190 -1 115 2 140
18 170 25 46 37 184 38 430 1 107 4 211 9 230 4 19 14 107 23 195 9 88 20 194
25 235 6 41 13 143 18 225 6 125 12 162 34 220 27 74 67 242 67 285 0 25 15
98 51 241 10 42 19 103 19 136 0 33 7 80 16 104 9 24 22 64 29 89 7 25 21 65
30 89 9 24 23 83 31 129 8 47 26 120 39 161 14 42 25 94 25 116 0 24 12 63 30
100 20 40 30 75 30 106 0 39 31 152 59 214 34 75 52 133 70 218 11 53 27 109
34 124 8 16 22 53 32 83 19 56 150 346 166 366 5 6 20 39 33 75 13 35 34 86
46 112 12 27 33 86 46 132 27 93 94 236 128 275 13 14 31 46 40 72 10 26 28
56 42 67 13 10 24 27 24 38 0 10 7 28 15 39 12 18 28 22 127 27 327 18 466 29
498 39 98 32 152 36 490 36 194 1 376 -4 415 -10z m4312 -5282 c-9 -12 -49
-62 -91 -109 -46 -53 -80 -102 -87 -127 -7 -22 -31 -59 -53 -82 -23 -24 -49
-55 -58 -69 -9 -15 -45 -47 -80 -73 -35 -25 -74 -57 -88 -70 -14 -13 -53 -38
-87 -55 -43 -22 -70 -43 -87 -69 -13 -20 -45 -60 -72 -89 -27 -28 -63 -66 -80
-85 -37 -41 -93 -84 -148 -113 -44 -24 -134 -76 -238 -137 -35 -21 -79 -51
-98 -68 -19 -16 -43 -33 -52 -36 -10 -3 -18 -9 -18 -14 0 -5 -19 -19 -42 -31
-45 -23 -106 -67 -146 -106 -13 -12 -56 -38 -97 -58 -48 -23 -84 -49 -108 -78
-35 -43 -98 -81 -152 -91 -16 -4 -24 -3 -17 0 6 3 12 12 12 20 0 11 -5 11 -27
1 -16 -6 -30 -14 -33 -18 -3 -3 -21 -14 -40 -24 -19 -10 -60 -37 -90 -60 -85
-64 -155 -99 -280 -139 -107 -34 -119 -41 -175 -94 -33 -32 -73 -67 -90 -79
-33 -22 -171 -82 -250 -108 -58 -19 -103 -45 -162 -92 -44 -35 -237 -153 -251
-153 -5 0 -33 -15 -63 -33 -59 -35 -210 -97 -237 -97 -10 0 -34 -11 -54 -25
-20 -14 -42 -25 -47 -25 -6 0 -34 -15 -63 -34 -29 -18 -64 -36 -78 -40 l-25
-7 24 19 c28 23 15 37 -22 23 -14 -5 -55 -30 -92 -55 -36 -25 -72 -46 -80 -46
-7 0 -63 -25 -124 -55 -61 -30 -116 -55 -122 -55 -6 0 -23 -7 -37 -15 -15 -7
-53 -21 -85 -30 -33 -9 -88 -29 -123 -46 -36 -16 -81 -33 -102 -38 -84 -21
-144 -40 -155 -49 -7 -5 -25 -12 -41 -16 -17 -4 -41 -15 -55 -25 -14 -10 -44
-24 -66 -31 -22 -7 -71 -27 -110 -45 -38 -18 -92 -39 -120 -45 -53 -13 -53
-13 -188 -56 -70 -22 -93 -25 -107 -16 -14 9 -30 6 -72 -10 -29 -12 -76 -22
-103 -23 -35 0 -60 -8 -82 -23 -30 -21 -153 -53 -201 -53 -46 1 -200 -39 -267
-70 -39 -17 -88 -39 -110 -49 -80 -37 -175 -60 -246 -60 -68 0 -154 -15 -174
-30 -5 -5 -30 -13 -55 -20 -25 -6 -85 -27 -135 -46 -49 -20 -102 -40 -118 -46
-15 -6 -30 -15 -34 -21 -3 -6 -1 -7 5 -3 7 4 12 4 12 -1 0 -30 -181 -93 -267
-93 -28 0 -54 -4 -58 -9 -3 -6 -38 -19 -78 -31 -39 -12 -89 -30 -109 -41 -20
-10 -52 -19 -70 -19 -19 0 -42 -6 -53 -14 -23 -15 -81 -31 -157 -43 -21 -3
-43 -12 -49 -19 -6 -8 -26 -14 -43 -14 -17 -1 -56 -10 -86 -21 -128 -47 -203
-69 -236 -69 -19 0 -60 -12 -89 -26 -30 -14 -71 -28 -92 -31 -21 -3 -47 -10
-57 -16 -10 -5 -58 -13 -106 -17 -67 -5 -94 -12 -115 -28 -15 -12 -39 -22 -54
-22 -14 0 -66 -12 -116 -25 -49 -14 -106 -28 -125 -32 -19 -3 -48 -16 -65 -28
-26 -20 -55 -30 -104 -38 -7 -1 -18 7 -24 18 -6 11 -20 33 -31 49 -27 42 -83
158 -111 232 -13 34 -44 97 -68 141 -25 43 -60 114 -77 158 -18 44 -51 123
-75 175 -50 110 -55 125 -62 165 -3 17 -6 34 -6 40 -1 5 43 15 98 22 249 31
281 35 301 39 17 4 26 -4 46 -43 14 -26 39 -75 56 -107 18 -33 32 -69 32 -80
0 -19 12 -40 62 -115 18 -26 24 -39 33 -66 6 -22 66 -55 97 -55 15 0 45 6 65
14 21 8 72 17 113 20 41 3 100 14 130 25 30 10 81 19 113 20 57 1 104 10 162
30 17 5 77 19 135 31 58 11 120 25 138 31 36 12 122 27 217 38 96 12 277 61
337 92 20 11 44 19 53 19 9 0 39 12 67 26 33 17 79 29 127 34 111 12 163 26
179 47 11 14 13 55 10 186 l-3 169 59 24 c32 14 81 28 110 31 46 5 161 35 241
65 17 6 57 14 90 18 34 4 70 12 80 17 11 6 45 16 75 23 30 6 119 27 196 46 78
19 155 34 171 34 16 0 56 9 89 21 63 22 162 45 259 59 55 8 130 34 180 62 20
12 31 14 188 41 49 9 94 20 100 25 7 5 48 17 92 26 44 10 92 25 107 32 14 8
31 14 38 14 7 0 63 20 124 45 62 25 127 45 144 45 16 0 58 13 91 29 45 21 84
31 147 36 66 5 87 11 91 23 10 27 24 32 102 32 64 0 84 5 149 36 42 20 107 48
146 61 76 27 273 119 281 132 2 5 19 11 36 15 26 5 97 34 214 86 11 5 45 19
75 30 54 21 211 100 233 118 7 5 37 19 67 30 30 11 73 30 95 41 21 12 48 21
58 21 10 0 31 8 45 19 15 10 41 21 57 25 17 4 82 33 146 66 64 32 143 65 176
73 53 14 115 45 193 97 14 9 48 23 75 30 28 8 73 29 102 47 29 18 87 49 130
69 43 19 87 44 98 54 32 30 277 140 312 140 19 0 43 10 63 26 36 31 164 94
189 94 10 0 36 13 57 30 21 16 77 55 124 87 47 32 106 77 133 101 26 23 53 42
60 42 7 0 55 28 107 63 52 35 124 78 160 96 36 17 85 47 110 66 25 20 70 52
100 72 30 20 67 46 82 59 15 12 58 32 95 45 60 21 79 35 166 121 53 53 105 98
115 100 9 2 23 -4 30 -15 12 -15 11 -21 -1 -41z"/>
<path d="M2652 6482 c-16 -52 -15 -72 2 -72 9 0 16 17 21 46 9 60 -8 78 -23
26z"/>
<path d="M2830 5840 c0 -20 33 -90 42 -90 6 0 7 7 3 18 -5 9 -13 32 -19 50
-10 30 -26 44 -26 22z"/>
<path d="M4687 4123 c-13 -12 -7 -33 8 -33 8 0 15 9 15 20 0 20 -11 26 -23 13z"/>
<path d="M3582 4068 c6 -18 25 -20 31 -3 5 10 0 15 -14 15 -12 0 -19 -5 -17
-12z"/>
<path d="M4438 4063 c6 -2 18 -2 25 0 6 3 1 5 -13 5 -14 0 -19 -2 -12 -5z"/>
<path d="M3690 3870 c0 -5 5 -10 10 -10 6 0 10 5 10 10 0 6 -4 10 -10 10 -5 0
-10 -4 -10 -10z"/>
<path d="M4110 3860 c-9 -6 -10 -10 -3 -10 6 0 15 5 18 10 8 12 4 12 -15 0z"/>
<path d="M4707 3842 c-10 -10 -17 -22 -17 -25 0 -11 25 -8 44 6 15 11 16 15 3
25 -11 9 -17 8 -30 -6z"/>
<path d="M4145 3720 c3 -5 12 -7 20 -3 21 7 19 13 -6 13 -11 0 -18 -4 -14 -10z"/>
<path d="M11736 5934 c-20 -19 -20 -25 -2 -18 8 3 17 12 20 20 7 18 1 18 -18
-2z"/>
<path d="M11240 5519 c-51 -39 -101 -74 -109 -77 -32 -13 -160 -94 -172 -108
-20 -25 16 -17 49 11 16 13 42 29 58 35 60 23 190 107 244 157 80 76 40 66
-70 -18z"/>
<path d="M10710 5179 c0 -5 5 -7 10 -4 6 3 10 8 10 11 0 2 -4 4 -10 4 -5 0
-10 -5 -10 -11z"/>
<path d="M9955 4779 c-4 -6 -5 -12 -2 -15 7 -7 37 7 37 17 0 13 -27 11 -35 -2z"/>
<path d="M9790 4708 c-39 -24 -26 -37 16 -16 27 13 45 38 27 38 -4 0 -24 -10
-43 -22z"/>
<path d="M9670 4600 c-9 -6 -10 -10 -3 -10 6 0 15 5 18 10 8 12 4 12 -15 0z"/>
<path d="M9403 4419 c-5 -5 -34 -20 -64 -32 -67 -28 -172 -88 -165 -94 8 -8
103 26 128 46 13 10 39 23 58 30 43 14 80 38 80 51 0 13 -23 13 -37 -1z"/>
<path d="M8884 4255 c-10 -8 -14 -14 -9 -15 15 0 40 18 34 24 -3 3 -14 -1 -25
-9z"/>
<path d="M8790 4055 c-44 -25 -71 -35 -95 -35 -12 0 -43 -11 -66 -25 -53 -30
-45 -31 46 -6 79 22 161 57 170 71 9 15 -27 12 -55 -5z"/>
<path d="M8368 3983 c-21 -5 -24 -23 -5 -23 7 0 22 7 33 15 20 15 9 18 -28 8z"/>
<path d="M8508 3953 c7 -3 16 -2 19 1 4 3 -2 6 -13 5 -11 0 -14 -3 -6 -6z"/>
<path d="M8322 3898 c-21 -21 -13 -27 20 -17 46 13 59 29 22 29 -16 0 -35 -5
-42 -12z"/>
<path d="M7554 3689 c-36 -10 -77 -49 -52 -49 8 0 27 9 41 20 16 13 40 20 66
20 23 0 41 5 41 10 0 12 -53 12 -96 -1z"/>
<path d="M7200 3550 c0 -13 11 -13 30 0 12 8 11 10 -7 10 -13 0 -23 -4 -23
-10z"/>
<path d="M7145 3434 c-87 -30 -109 -49 -45 -40 61 9 170 45 170 57 0 15 -50 8
-125 -17z"/>
<path d="M6400 3207 c-20 -8 -22 -11 -8 -14 20 -5 55 12 42 19 -5 3 -20 1 -34
-5z"/>
<path d="M6142 3161 c-42 -7 -71 -25 -60 -37 6 -6 148 34 148 41 0 6 -33 4
-88 -4z"/>
<path d="M5610 2953 c-14 -3 -29 -9 -35 -15 -13 -14 55 -2 69 12 10 10 9 11
-34 3z"/>
<path d="M5435 2930 c-17 -7 -15 -9 12 -9 17 -1 35 4 38 9 7 12 -22 12 -50 0z"/>
<path d="M4305 2690 c-3 -5 -1 -10 4 -10 6 0 11 5 11 10 0 6 -2 10 -4 10 -3 0
-8 -4 -11 -10z"/>
<path d="M2945 2450 c-3 -5 3 -10 14 -10 12 0 21 5 21 10 0 6 -6 10 -14 10 -8
0 -18 -4 -21 -10z"/>
<path d="M3220 2282 c0 -11 37 -32 44 -25 8 9 -14 33 -30 33 -8 0 -14 -3 -14
-8z"/>
<path d="M280 9273 c0 -13 22 -33 37 -33 7 0 13 7 13 15 0 8 -4 15 -9 15 -5 0
-16 3 -25 6 -9 3 -16 2 -16 -3z"/>
<path d="M13160 4940 c0 -5 -8 -10 -17 -10 -21 -1 -59 -27 -51 -35 7 -8 38 5
38 16 0 5 9 9 20 9 11 0 20 7 20 15 0 8 -2 15 -5 15 -3 0 -5 -4 -5 -10z"/>
<path d="M12056 4331 c-4 -5 3 -7 14 -4 23 6 26 13 6 13 -8 0 -17 -4 -20 -9z"/>
</g>
</svg>
